<?xml version="1.0" standalone="no"?>
<!DOCTYPE svg PUBLIC "-//W3C//DTD SVG 20010904//EN"
 "http://www.w3.org/TR/2001/REC-SVG-20010904/DTD/svg10.dtd">
<svg version="1.0" xmlns="http://www.w3.org/2000/svg"
 width="460.000000pt" height="460.000000pt" viewBox="0 0 460.000000 460.000000"
 preserveAspectRatio="xMidYMid meet">
<metadata>
Created by potrace 1.14, written by Peter Selinger 2001-2017
</metadata>
<g transform="translate(0.000000,460.000000) scale(0.100000,-0.100000)"
fill="#000000" stroke="none">
<path d="M0 2300 l0 -2300 2300 0 2300 0 0 2300 0 2300 -2300 0 -2300 0 0
-2300z m2010 1315 l0 -35 110 0 110 0 0 -35 0 -35 -217 2 -218 3 -3 32 -3 32
-67 3 c-55 2 -67 6 -70 21 -9 45 -2 47 183 47 l175 0 0 -35z m868 3 c-3 -29
-7 -33 -35 -36 -28 -3 -32 -7 -35 -35 l-3 -32 -217 -3 -218 -2 0 34 0 35 73 3
72 3 3 33 3 32 180 0 180 0 -3 -32z m-1298 -73 l0 -35 70 0 70 0 0 -34 c0 -32
-3 -35 -32 -38 -30 -3 -33 -6 -36 -40 l-3 -38 -70 0 -69 0 0 -35 0 -36 -72 3
-72 3 -1 30 c0 26 -4 30 -32 33 -31 3 -33 6 -33 42 0 36 2 39 33 42 20 2 32 9
33 18 3 46 5 49 37 52 26 2 32 7 34 28 0 14 1 28 2 33 1 4 33 7 71 7 l70 0 0
-35z m1510 0 c0 -33 2 -35 35 -35 33 0 35 -2 35 -35 0 -33 2 -35 35 -35 34 0
35 -1 35 -40 0 -39 -1 -40 -35 -40 -33 0 -35 -2 -35 -35 l0 -35 -70 0 -70 0 0
35 0 35 -70 0 -70 0 0 74 0 75 33 3 c28 3 32 7 35 36 l3 32 70 0 69 0 0 -35z
m-500 -220 l0 -34 108 -3 107 -3 3 -32 c3 -30 6 -33 38 -33 32 0 34 -2 34 -34
0 -32 3 -35 33 -38 28 -3 32 -7 35 -35 3 -30 6 -33 38 -33 l34 0 0 -180 0
-180 -35 0 -35 0 0 -70 c0 -66 -1 -70 -22 -70 -34 0 -46 -12 -50 -45 -2 -26
-8 -30 -35 -33 -28 -3 -32 -7 -35 -35 -3 -29 -6 -32 -40 -35 -36 -3 -38 -5
-38 -38 l0 -34 -70 0 -70 0 0 -35 0 -35 -325 0 -325 0 0 35 0 35 -75 0 c-41 0
-74 3 -74 8 1 4 1 19 0 34 -1 23 -6 27 -33 30 -29 3 -33 7 -36 35 -3 28 -7 32
-35 35 -28 3 -32 7 -35 36 -2 23 -8 32 -22 32 -44 0 -50 9 -50 81 l0 69 -35 0
-35 0 0 180 0 180 35 0 c33 0 35 2 35 35 0 33 2 35 35 35 33 0 35 2 35 35 0
33 2 35 35 35 33 0 35 2 35 35 l0 35 110 0 110 0 0 35 0 35 325 0 325 0 0 -35z
m-1292 -142 c3 -29 7 -33 33 -33 16 0 30 -3 30 -7 2 -12 2 -44 1 -95 l-2 -48
-175 0 -175 0 0 -35 0 -34 143 -3 142 -3 3 -32 c3 -27 7 -32 34 -35 l31 -3 -2
-76 c-3 -107 4 -127 42 -131 28 -3 32 -7 34 -35 1 -22 -4 -34 -15 -37 -10 -3
-89 -4 -177 -3 l-160 2 -5 35 c-4 31 -9 35 -37 38 -28 3 -32 7 -35 35 -3 28
-7 32 -35 35 -24 2 -33 8 -33 22 0 44 -9 50 -81 50 l-69 0 0 105 0 105 34 0
c33 0 35 2 38 38 3 35 5 37 41 40 35 3 37 5 37 37 0 31 3 34 33 37 28 3 32 7
35 36 l3 33 142 -3 142 -3 3 -32z m2294 5 c3 -29 7 -33 36 -36 29 -3 32 -6 32
-37 0 -32 2 -34 38 -37 35 -3 37 -5 40 -40 3 -36 5 -38 38 -38 l34 0 0 -105 0
-105 -70 0 -69 0 -7 -34 c-5 -30 -10 -35 -38 -38 -27 -3 -31 -7 -34 -35 -3
-28 -7 -32 -35 -35 -28 -3 -32 -7 -35 -35 -2 -18 -6 -33 -10 -34 -58 -4 -374
-7 -395 -3 -25 5 -28 10 -25 37 3 28 7 32 35 35 l32 3 3 102 3 102 33 3 c23 2
32 8 32 22 0 50 1 50 186 50 l174 0 0 35 0 35 -212 2 -213 3 0 70 0 70 68 3
c66 3 67 3 67 31 0 15 3 31 7 34 3 4 68 7 144 7 l138 0 3 -32z m-2082 -793 l0
-105 69 0 70 0 3 -37 3 -38 108 -3 107 -3 0 -34 0 -35 180 0 180 0 0 -35 0
-35 -110 0 -110 0 0 -35 0 -35 -145 0 -145 0 0 -35 0 -35 -209 0 -210 0 -3 33
-3 32 -72 3 -73 3 0 144 0 145 35 0 c33 0 35 2 35 35 0 34 1 35 40 35 39 0 40
1 40 35 l0 34 68 3 c59 3 67 5 68 23 1 11 2 26 3 33 1 7 15 12 36 12 l35 0 0
-105z m1580 70 c0 -33 2 -35 35 -35 33 0 35 -2 35 -35 0 -33 2 -35 35 -35 28
0 35 -4 35 -19 0 -37 12 -51 41 -51 25 0 29 -4 29 -29 0 -34 20 -54 52 -49 23
3 23 1 26 -104 l3 -107 -73 -3 c-56 -2 -73 -6 -74 -18 -1 -8 -2 -23 -3 -32 -1
-17 -18 -18 -214 -18 l-212 0 0 33 0 32 -142 3 -142 3 -3 32 -3 32 -107 3
-108 3 0 34 0 35 178 2 177 3 3 32 3 32 107 3 107 3 3 38 3 37 70 0 69 0 0
105 0 105 35 0 c33 0 35 -2 35 -35z m-862 -648 c3 -35 5 -37 38 -37 l34 0 0
-70 0 -70 -35 0 c-33 0 -35 -2 -35 -35 0 -33 -2 -35 -35 -35 l-35 0 0 -75 0
-75 34 0 c32 0 35 -3 38 -32 3 -29 7 -33 36 -36 29 -3 32 -6 32 -38 0 -32 2
-34 35 -34 l35 0 0 -69 0 -70 38 -3 37 -3 2 -55 c1 -30 2 -60 2 -67 1 -6 16
-13 34 -15 l32 -3 3 -107 3 -108 -36 0 c-34 0 -40 -7 -36 -38 5 -33 -17 -37
-191 -37 l-173 0 -5 35 c-4 26 -10 35 -25 36 -45 2 -46 4 -43 37 3 28 7 32 36
35 29 3 32 6 32 38 0 32 2 34 35 34 33 0 35 2 35 35 0 33 2 35 34 35 39 0 41
4 41 85 l0 60 -32 3 c-28 3 -32 7 -35 35 -3 29 -6 32 -40 35 -36 3 -38 5 -38
38 0 32 -2 34 -35 34 l-35 0 0 69 0 70 -32 3 -33 3 -3 108 -3 107 36 0 35 0 0
70 0 70 35 0 c34 0 40 10 34 56 -2 14 22 19 83 19 l63 0 3 -38z m-368 -973 c0
-72 1 -75 23 -74 52 5 57 1 57 -35 0 -33 2 -35 35 -35 33 0 35 -2 35 -35 l0
-35 255 0 255 0 0 35 c0 26 4 35 18 36 9 1 24 2 32 3 9 0 17 15 20 36 4 31 9
35 37 38 l32 3 3 67 3 67 38 3 37 3 0 -70 0 -71 -39 0 c-39 0 -40 -1 -43 -37
-3 -36 -5 -38 -35 -37 -32 1 -33 -1 -33 -38 0 -37 -1 -38 -34 -38 -32 0 -35
-3 -38 -32 l-3 -33 -252 -3 -253 -2 0 35 c0 33 -2 35 -35 35 -33 0 -35 2 -35
34 0 33 -2 35 -37 38 -34 3 -38 6 -41 33 -4 33 -16 45 -49 45 -22 0 -23 4 -23
70 l0 70 35 0 35 0 0 -76z"/>
<path d="M2010 2970 l0 -181 73 3 72 3 0 175 0 175 -72 3 -73 3 0 -181z"/>
<path d="M2370 2970 l0 -181 73 3 72 3 0 175 0 175 -72 3 -73 3 0 -181z"/>
<path d="M1797 2783 c-4 -3 -7 -19 -7 -35 0 -26 3 -28 40 -28 39 0 40 -1 40
-34 0 -32 3 -35 33 -38 28 -3 32 -7 35 -35 2 -20 9 -34 18 -34 48 -4 49 -4 54
31 l5 35 250 0 250 0 0 -35 0 -35 -240 -2 c-132 -1 -246 -2 -252 -2 -8 -1 -13
-15 -13 -36 l0 -35 253 2 252 3 3 31 c3 27 8 33 37 38 29 6 34 11 37 39 3 28
7 32 36 35 29 3 32 6 32 38 0 32 2 34 35 34 33 0 35 2 35 35 0 33 -2 35 -35
35 -33 0 -35 -2 -35 -35 l0 -35 -395 0 -395 0 0 35 c0 33 -2 35 -33 35 -19 0
-37 -3 -40 -7z"/>
<path d="M1439 2280 c-1 -5 -1 -19 -1 -30 0 -39 2 -41 35 -38 29 3 32 6 35 41
3 36 3 37 -32 37 -20 0 -36 -4 -37 -10z"/>
<path d="M1382 2211 c-6 -3 -12 -35 -13 -71 l-4 -65 35 0 35 0 3 66 c3 64 2
67 -22 71 -14 3 -29 2 -34 -1z"/>
<path d="M3022 2253 c3 -35 6 -38 36 -41 l32 -3 0 -70 0 -69 35 0 35 0 0 69 0
70 -32 3 c-30 3 -33 6 -36 41 -3 35 -5 37 -38 37 -35 0 -35 -1 -32 -37z"/>
</g>
</svg>
