<?xml version="1.0" encoding="UTF-8" standalone="no"?>
<svg
   xmlns:dc="http://purl.org/dc/elements/1.1/"
   xmlns:cc="http://creativecommons.org/ns#"
   xmlns:rdf="http://www.w3.org/1999/02/22-rdf-syntax-ns#"
   xmlns:svg="http://www.w3.org/2000/svg"
   xmlns="http://www.w3.org/2000/svg"
   xmlns:sodipodi="http://sodipodi.sourceforge.net/DTD/sodipodi-0.dtd"
   xmlns:inkscape="http://www.inkscape.org/namespaces/inkscape"
   width="1689.8579px"  
   height="695.96765px"
   viewBox="0 0 1689.8579 695.96765"
   version="1.1"
   id="svg3405"
   inkscape:version="1.0 (4035a4fb49, 2020-05-01)"
   sodipodi:docname="USB4 40Gbps Logo.svg">
  <defs
     id="defs3399" />
  <sodipodi:namedview
     id="base"
     inkscape:window-y="-11"
     inkscape:window-x="-11"
     inkscape:window-height="2066"
     inkscape:window-width="3840"
     showgrid="false"
     inkscape:cx="253.71033"
     inkscape:cy="225.2871"
     inkscape:zoom="0.98994949"
     scale-x="1"
	 units="px"
     inkscape:pageshadow="2"
     inkscape:pageopacity="0.0"
     borderopacity="1.0"
     bordercolor="#666666"
     pagecolor="#ffffff"
     inkscape:pagecheckerboard="false" />
  <metadata
     id="metadata3402">
    <rdf:RDF>
      <cc:Work
         rdf:about="">
        <dc:format>image/svg+xml</dc:format>
        <dc:type
           rdf:resource="http://purl.org/dc/dcmitype/StillImage" />
        <dc:title />
      </cc:Work>
    </rdf:RDF>
  </metadata>
  <g
     id="layer1"
     inkscape:label="Layer 1"
     inkscape:groupmode="layer"
     transform="translate(-54.134316,-86.691146)">
    <g
       id="g4749"
       transform="matrix(30.070297,0,0,30.070297,-2142.0013,-2700.6504)">
      <path
         id="path5498-4"
         d="m 123.06663,101.56495 0.60875,-3.024839 h -1.10339 l 0.0761,-0.380476 h 2.6824 l -0.0761,0.380476 h -1.12242 l -0.60878,3.024839 z"
         style="fill:#231f20;fill-opacity:1" />
      <path
         id="path5500-2"
         d="m 125.31147,101.56495 0.68486,-3.405315 h 0.57073 l 0.34244,2.206785 c 0.0382,0.28536 0.0761,0.57072 0.095,0.81804 0.095,-0.20926 0.2473,-0.53268 0.45658,-0.91315 l 1.19851,-2.111675 h 0.57072 l -0.70389,3.405315 h -0.45658 l 0.36147,-1.655111 c 0.095,-0.380475 0.20925,-0.818031 0.36145,-1.293641 -0.095,0.209275 -0.22829,0.456583 -0.36145,0.722918 l -1.27462,2.225834 h -0.43755 l -0.34245,-2.168754 c -0.0382,-0.228282 -0.0571,-0.456583 -0.0761,-0.722918 -0.0382,0.304389 -0.0761,0.532671 -0.1142,0.722918 l -0.43755,2.168754 z"
         style="fill:#231f20;fill-opacity:1" />
    </g>
    <g
       transform="matrix(30.070297,0,0,30.070297,-1573.7084,-2520.2176)"
       id="g43">	
    <path
       id="path6996"
       d="m 101.9996,109.61228 v -4.14088 -0.20364 h -0.20365 -4.14087 -0.226279 v 0.20364 1.44819 h -2.27667 c -0.678831,0 -1.66055,-0.91386 -2.15836,-1.41166 l -3.710947,-3.55255 h 14.048256 v 1.38029 0.38468 l 0.33941,-0.18103 3.84672,-2.19489 0.33941,-0.18102 -0.33941,-0.20365 -3.84672,-2.194893 -0.33941,-0.181016 v 0.38467 1.380289 H 85.620695 l 3.665691,-3.688315 c 0.497809,-0.497804 1.4708,-0.905111 2.14963,-0.905111 h 2.194889 c 0.271531,0.995618 1.176641,1.674449 2.217515,1.674449 1.267154,0 2.308027,-1.018246 2.308027,-2.285399 0,-1.267143 -1.040873,-2.308026 -2.308027,-2.308026 -0.882481,0 -1.697076,0.497815 -2.081747,1.28978 h -2.941605 c -0.724085,0 -1.651821,0.339415 -2.059121,0.791976 -0.588319,0.565685 -4.231382,4.163492 -5.227002,5.181736 -0.135766,0.1584 -0.520436,0.24891 -0.520436,0.24891 l -2.489516,0.14174 -0.206757,1.46486 h 0.135766 5.973718 c 0.565689,0 0.837223,0.29416 1.221895,0.67882 0.06788,0.0679 0.135767,0.15841 0.226276,0.22629 l 4.593429,4.23138 c 0.475181,0.49781 2.067851,1.43428 2.769311,1.43428 h 2.186158 v 1.08613 0.22628 h 0.226279 4.140862 0.20366 z"
       stroke="none"
       style="fill:#231f20;stroke-width:0.0226278"
	    sodipodi:nodetypes="ccccccccscccccccccccccccscssscsccccccssccsccccccc" />
    <path
       id="path2519"
       d="m 65.064453,86.740234 c -4.861868,0.439337 -8.977173,3.800576 -10.404297,8.494141 -1.427123,4.693565 0.111462,9.794765 3.894532,12.896485 l 0.424106,-1.51516 c -2.553667,-2.09374 -4.250944,-6.816884 -2.986606,-10.975075 1.264338,-4.158191 4.899363,-7.125297 9.197265,-7.513672 4.297902,-0.388375 8.397356,1.879718 10.376953,5.744141 l 0.348447,-2.2254 c -1.479183,-2.57969 -5.988531,-5.344796 -10.8504,-4.90546 z"
       style="fill:#231f20;fill-opacity:1"
	   sodipodi:nodetypes="ssccssccs" />
	</g>   
    <g
       transform="matrix(30.070297,0,0,30.070297,-1573.7084,-2520.2176)"
       id="g42">
      <g
         id="g951">
      <path
         id="path5502-7"
         style="display:inline;fill:#231f20;fill-opacity:1"
         d="m 68.597236,94.249288 c -2.318289,2.680349 -6.860488,8.315822 -6.860488,8.315822 l -0.310079,1.97266 c 0,0 3.77697,-0.0151 5.645268,-0.0151 l -0.666577,3.62022 2.670954,0.0288 0.731462,-3.64011 1.787204,-0.008 0.524092,-2.38917 c 0,0 -1.267436,-0.0154 -1.888036,-0.0154 l 1.859067,-7.858169 z m 0.174041,2.810575 -1.181107,5.045697 h -2.617935 z"
         sodipodi:nodetypes="cccccccccccccccc" />
		 <path
           id="path2656-7"
           d="m 79.891056,98.057219 c 0,-0.365012 -0.2147,-1.54486 -1.309734,-1.54486 -0.803025,0 -1.869224,1.462353 -2.08823,1.827364 -0.730023,1.460046 -1.156211,2.795407 -1.229213,3.160417 -0.438014,2.26307 -0.595845,4.42738 1.171322,4.40376 1.532902,-0.0205 2.773065,-2.87613 3.138076,-4.70119 0.146004,-0.80302 0.390781,-2.196461 0.317779,-3.145491 z m -0.88143,-3.807931 c 1.825058,0 2.774087,1.022032 3.066097,1.752055 0.511016,1.022032 0.730023,2.336073 0.219006,4.964157 -0.65702,3.06609 -2.263071,7.15422 -6.278197,7.15422 -3.50411,0 -4.015126,-3.2851 -3.2121,-6.86221 0.365011,-1.752057 1.898059,-7.008222 6.205194,-7.008222 z"
           style="fill:#231f20;fill-opacity:1;stroke-width:0.073"
           sodipodi:nodetypes="csccsccsccscs" />
      </g>

    </g>
  </g>
</svg>
