<?xml version="1.0" encoding="UTF-8" standalone="no"?>
<!-- Created with Inkscape (http://www.inkscape.org/) -->														 
<svg
   xmlns:dc="http://purl.org/dc/elements/1.1/"
   xmlns:cc="http://creativecommons.org/ns#"
   xmlns:rdf="http://www.w3.org/1999/02/22-rdf-syntax-ns#"
   xmlns:svg="http://www.w3.org/2000/svg"
   xmlns="http://www.w3.org/2000/svg"
   xmlns:sodipodi="http://sodipodi.sourceforge.net/DTD/sodipodi-0.dtd"
   xmlns:inkscape="http://www.inkscape.org/namespaces/inkscape"
   version="1.0"
   width="600"
   height="320"
   viewBox="0 0 600.00002 320"
   id="Layer_1"
   xml:space="preserve"
   inkscape:version="1.0 (4035a4fb49, 2020-05-01)"
   sodipodi:docname="USB SuperSpeed 5 Gbps Trident Logo.svg"
   style="enable-background:new"><metadata
   id="metadata7"><rdf:RDF><cc:Work
       rdf:about=""><dc:format>image/svg+xml</dc:format><dc:type
         rdf:resource="http://purl.org/dc/dcmitype/StillImage" /><dc:title /></cc:Work></rdf:RDF></metadata><sodipodi:namedview
   pagecolor="#ffffff"
   bordercolor="#666666"
   borderopacity="1"
   objecttolerance="10"
   gridtolerance="10"
   guidetolerance="10"
   inkscape:pageopacity="0"
   inkscape:pageshadow="2"
   inkscape:window-width="1920"
   inkscape:window-height="1017"
   id="namedview5"
   showgrid="false"
   inkscape:zoom="1.8101934"
   inkscape:cx="243.81975"
   inkscape:cy="203.78567"
   inkscape:window-x="1912"
   inkscape:window-y="-8"
   inkscape:window-maximized="1"
   inkscape:current-layer="Layer_1" /><defs
   id="defs1337" />

<path
   inkscape:connector-curvature="0"
   style="display:inline;enable-background:new"
   d="m 505.78359,125.01728 c -6.89488,-0.96427 -14.1087,-4.46463 -16.76726,-11.31335 -3.2984,-7.2742 -2.27695,-12.91371 -2.27695,-12.91371 l 13.17373,9.7e-4 c 0,0 1.63662,9.31148 5.63073,12.09602 6.24904,4.9767 17.04021,2.29903 19.60733,-5.47826 3.04505,-7.503491 2.21054,-15.789377 2.0633,-23.693018 -0.51744,-6.317929 -0.80485,-14.146047 -6.85743,-17.846931 -2.99235,-1.532128 -6.61626,-1.795566 -9.86342,-1.143237 -6.68505,2.10098 -7.63262,3.378156 -10.11097,11.934953 L 488.11689,76.463158 487.93661,16.29639 c 0,0 47.24877,-0.0022 48.19179,-0.105162 l 0.009,12.594536 -34.01782,-0.139088 -0.0258,30.949471 c 0,0 4.79209,-4.512165 7.54388,-4.87339 4.81556,-2.154455 10.31482,-2.087475 15.41866,-1.275648 7.84321,1.9776 12.74769,9.532376 14.27305,17.08402 2.08493,8.586556 1.76319,17.468831 1.58562,26.232571 -0.76961,8.20598 -2.63372,17.20033 -9.22975,22.80277 -5.48708,4.42746 -10.27492,5.66297 -19.63789,5.62212 -2.85148,0.0368 -4.18143,-9.7e-4 -6.26321,-0.17172 z M 411.72694,108.0003 c -10.918,0 -20.11225,6.9232 -23.53125,16.6562 h -35.125 c -11.202,0 -22.93525,6.2013 -30.40625,13.4063 -0.0121,0.013 0.0134,0.017 0,0.031 -0.158,0.178 -53.875,55.6875 -53.875,55.6875 -4.229,3.3919 -9.76875,5.7702 -15.46875,5.9062 h -32.09374 c -8.91314,-2.1134 -18.15646,-4.4707 -24.125,-8.7812 -5.51597,-3.9837 -7.11451,-6.4801 -7.3125,-13.2813 -0.19319,-6.6365 6.69145,-15.2607 12.15625,-19.0312 5.0923,-3.5136 11.37064,-3.881 17.53125,-3.3125 5.64606,0.5209 13.38404,2.0543 15.59375,6.75 2.20971,4.6956 2.3125,14.9687 2.3125,14.9687 h 28.24999 c 0.0517,-24.3068 -2.5907,-27.6897 -11.78125,-36.7812 -7.64944,-7.5671 -20.02144,-9.7132 -30.78124,-9.6875 -15.89831,0.038 -32.94399,4.6991 -45.4375,14.5312 -9.61051,7.5632 -16.7799,19.329 -19.06251,31.3438 -1.76999,9.3164 -0.85038,20.4479 4.84375,28.0312 9.65519,12.8585 29.06294,13.7344 43.34376,21.125 14.14843,7.3221 15.53095,6.5201 17.21875,13.9688 1.38753,6.1235 -3.0438,13.3579 -7.46875,17.8125 -3.35206,3.3744 -8.33886,4.8164 -12.9375,6.0312 -3.52732,0.9318 -7.29793,1.4137 -10.90625,0.875 -5.95725,-0.8894 -13.0296,-1.9378 -16.8125,-6.625 -4.37471,-5.4204 -3.375,-20.625 -3.375,-20.625 h -30.62501 c 0,0 -2.42301,23.916 3.3125,33.5938 4.66116,7.8649 14.09174,12.2698 22.65625,15.4687 7.46759,2.7893 15.81398,3.5009 23.75001,2.75 14.21978,-1.3454 28.90733,-5.0471 40.875,-12.8437 9.23836,-6.0186 17.30493,-14.7954 21.84374,-24.8438 3.11448,-6.895 3.15121,-16.4546 2.875,-22.5312 -0.13512,-2.9727 -1.88574,-7.7393 -4.96875,-12.375 21.78908,-0.035 44.73543,0 63.71875,0 5.689,0.145 11.2125,2.5102 15.4375,5.9062 0,0 52.68075,58.6325 52.84375,58.8125 10.37458,9.996 21.18938,10.304 26.25,10.4063 h 38.78125 V 308 h 50.00001 v -50 h -50.00001 v 16.6563 h -39.25 c -5.705,-0.131 -11.264,-2.3218 -15.5,-5.7188 l -45.65625,-52.7187 187.90626,0.125 V 233 l 43.3125,-25 -43.3125,-25 v 16.6563 l -250.46876,0.031 50.84375,-52.5 c 4.238,-3.397 9.796,-5.7118 15.5,-5.8438 23.075,0 30.54975,0.01 35.59375,0 3.419,9.741 12.61325,16.6563 23.53125,16.6563 13.812,0 25,-11.183 25,-25 0,-13.8231 -11.187,-25 -25,-25 z m -309.03125,22.5312 c -15.898304,0.038 -32.943999,4.6679 -45.4375,14.5 -9.61049,7.5632 -16.748636,19.3603 -19.031246,31.375 -1.76999,9.3165 -0.88163,20.448 4.8125,28.0313 9.655146,12.8584 29.094177,13.7344 43.374997,21.125 14.148429,7.322 15.499699,6.52 17.187499,13.9687 1.38753,6.1235 -3.01255,13.358 -7.437498,17.8125 -3.352057,3.3745 -8.338871,4.8165 -12.937501,6.0313 -3.52732,0.9317 -7.29793,1.4137 -10.90625,0.875 -5.95725,-0.8894 -13.029601,-1.9379 -16.812501,-6.625 -4.37471,-5.4205 -3.375,-20.625 -3.375,-20.625 H 21.508194 c 0,0 -2.42301,23.9159 3.3125,33.5937 4.66116,7.865 14.09174,12.2698 22.656246,15.4688 7.46756,2.7892 15.81396,3.5008 23.750001,2.75 14.21977,-1.3454 28.907329,-5.0472 40.874999,-12.8438 9.23836,-6.0185 17.27369,-14.7954 21.8125,-24.8437 3.11448,-6.8951 3.18246,-16.4546 2.90625,-22.5313 -0.27622,-6.0767 -7.3315,-19.7368 -18.65625,-24.1562 -11.26467,-4.396 -31.162229,-6.133 -41.406249,-13.5313 -5.51598,-3.9837 -7.14577,-6.48 -7.34375,-13.2812 -0.1932,-6.6366 6.69144,-15.2608 12.15625,-19.0313 5.09229,-3.5135 11.401894,-3.881 17.562499,-3.3125 5.64606,0.521 13.38404,2.0544 15.59375,6.75 2.20971,4.6956 2.28125,14.9688 2.28125,14.9688 h 28.28125 c 0.0517,-24.3068 -2.5907,-27.6898 -11.78125,-36.7813 -7.64944,-7.567 -20.0527,-9.7132 -30.8125,-9.6875 z"
   id="path1336" /></svg>