<?xml version="1.0" encoding="utf-8"?>
<!DOCTYPE svg PUBLIC "-//W3C//DTD SVG 1.1//EN" "http://www.w3.org/Graphics/SVG/1.1/DTD/svg11.dtd">
<!-- Generator: Adobe Illustrator 22.1.0, SVG Export Plug-In . SVG Version: 6.00 Build 0)  -->
<svg version="1.1" xmlns:cc="http://creativecommons.org/ns#" xmlns:dc="http://purl.org/dc/elements/1.1/" xmlns:inkscape="http://www.inkscape.org/namespaces/inkscape" xmlns:rdf="http://www.w3.org/1999/02/22-rdf-syntax-ns#" xmlns:sodipodi="http://sodipodi.sourceforge.net/DTD/sodipodi-0.dtd" xmlns:svg="http://www.w3.org/2000/svg" xmlns="http://www.w3.org/2000/svg" xmlns:xlink="http://www.w3.org/1999/xlink" x="0px" y="0px" width="550px" height="250px" viewBox="0 0 550 250" style="enable-background:new 0 0 550 250;" xml:space="preserve">
<style type="text/css">
	.st0{fill:#FFFF00;stroke:#000000;stroke-miterlimit:10;}
	.st1{font-family:Liberation Sans,sans-serif;font-weight:bold;}
	.st2{font-size:10px;}
	.st3{fill:none;stroke:#000000;stroke-miterlimit:10;}
</style>
<path d="M490.4,78.2H59.6c-25.7,0-45.4,19.7-45.4,45.4s19.7,45.4,45.4,45.4h430.9c25.7,0,45.4-19.7,45.4-45.4S516.1,78.2,490.4,78.2
	z M490.4,161.4H59.6c-21.4,0-37.8-16.4-37.8-37.8c0-21.4,16.4-37.8,37.8-37.8h430.9c21.4,0,37.8,16.4,37.8,37.8
	C528.2,145,511.9,161.4,490.4,161.4z"/>
<g>
	<path d="M275,133h221.1c1.1,0,1.9-0.8,1.9-1.9V116c0-1.1-0.8-1.9-1.9-1.9H53.9c-1.1,0-1.9,0.8-1.9,1.9v15.1c0,1.1,0.8,1.9,1.9,1.9H275z"/>
	<g>
		<rect x="395" y="111.3" class="st0" width="24.6" height="7.6"/>
		<rect x="357.2" y="111.3" class="st0" width="24.6" height="7.6"/>
		<rect x="470.6" y="111.3" class="st0" width="24.6" height="7.6"/>
		<rect x="432.8" y="111.3" class="st0" width="24.6" height="7.6"/>
		<rect x="243.8" y="111.3" class="st0" width="24.6" height="7.6"/>
		<rect x="206" y="111.3" class="st0" width="24.6" height="7.6"/>
		<rect x="319.4" y="111.3" class="st0" width="24.6" height="7.6"/>
		<rect x="281.6" y="111.3" class="st0" width="24.6" height="7.6"/>
		<rect x="92.6" y="111.3" class="st0" width="24.6" height="7.6"/>
		<rect x="54.8" y="111.3" class="st0" width="24.6" height="7.6"/>
		<rect x="168.2" y="111.3" class="st0" width="24.6" height="7.6"/>
		<rect x="130.4" y="111.3" class="st0" width="24.6" height="7.6"/>
	</g>
	<g>
		<rect x="395" y="128.3" class="st0" width="24.6" height="7.6"/>
		<rect x="357.2" y="128.3" class="st0" width="24.6" height="7.6"/>
		<rect x="470.6" y="128.3" class="st0" width="24.6" height="7.6"/>
		<rect x="432.8" y="128.3" class="st0" width="24.6" height="7.6"/>
		<rect x="243.8" y="128.3" class="st0" width="24.6" height="7.6"/>
		<rect x="206" y="128.3" class="st0" width="24.6" height="7.6"/>
		<rect x="319.4" y="128.3" class="st0" width="24.6" height="7.6"/>
		<rect x="281.6" y="128.3" class="st0" width="24.6" height="7.6"/>
		<rect x="92.6" y="128.3" class="st0" width="24.6" height="7.6"/>
		<rect x="54.8" y="128.3" class="st0" width="24.6" height="7.6"/>
		<rect x="168.2" y="128.3" class="st0" width="24.6" height="7.6"/>
		<rect x="130.4" y="128.3" class="st0" width="24.6" height="7.6"/>
	</g>
</g>
<g>
	<text transform="matrix(1 0 0 1 60.7342 38.5002)" class="st1 st2">A1</text>
	<text transform="matrix(1 0 0 1 98.5296 38.5002)" class="st1 st2">A2</text>
	<text transform="matrix(1 0 0 1 136.325 38.5002)" class="st1 st2">A3</text>
	<text transform="matrix(1 0 0 1 174.1205 38.5002)" class="st1 st2">A4</text>
	<text transform="matrix(1 0 0 1 211.9344 38.5002)" class="st1 st2">A5</text>
	<text transform="matrix(1 0 0 1 249.7108 38.5002)" class="st1 st2">A6</text>
	<text transform="matrix(1 0 0 1 287.5057 38.5002)" class="st1 st2">A7</text>
	<text transform="matrix(1 0 0 1 325.3016 38.5002)" class="st1 st2">A8</text>
	<text transform="matrix(1 0 0 1 363.097 38.5002)" class="st1 st2">A9</text>
	<text transform="matrix(1 0 0 1 398.1112 38.5002)" class="st1 st2">A10</text>
	<text transform="matrix(1 0 0 1 436.182 38.5002)" class="st1 st2">A11</text>
	<text transform="matrix(1 0 0 1 473.7015 38.5002)" class="st1 st2">A12</text>
</g>
<g>
	<text transform="matrix(1 0 0 1 57.9535 216.137)" class="st1 st2">B12</text>
	<text transform="matrix(1 0 0 1 476.4823 216.137)" class="st1 st2">B1</text>
	<text transform="matrix(1 0 0 1 438.6869 216.137)" class="st1 st2">B2</text>
	<text transform="matrix(1 0 0 1 400.8919 216.137)" class="st1 st2">B3</text>
	<text transform="matrix(1 0 0 1 363.097 216.137)" class="st1 st2">B4</text>
	<text transform="matrix(1 0 0 1 325.3016 216.137)" class="st1 st2">B5</text>
	<text transform="matrix(1 0 0 1 287.5057 216.137)" class="st1 st2">B6</text>
	<text transform="matrix(1 0 0 1 249.7298 216.137)" class="st1 st2">B7</text>
	<text transform="matrix(1 0 0 1 211.9154 216.1748)" class="st1 st2">B8</text>
	<text transform="matrix(1 0 0 1 174.12 216.137)" class="st1 st2">B9</text>
	<text transform="matrix(1 0 0 1 133.5443 216.137)" class="st1 st2">B10</text>
	<text transform="matrix(1 0 0 1 96.0438 216.137)" class="st1 st2">B11</text>
</g>
<g>
	<text transform="matrix(1 0 0 1 92.2937 189.2268)" class="st1 st2">RX1+</text>
	<text transform="matrix(1 0 0 1 130.07 189.2268)" class="st1 st2">RX1−</text>
	<text transform="matrix(1 0 0 1 166.6202 189.2268)" class="st1 st2">VBUS</text>
	<text transform="matrix(1 0 0 1 204.9697 189.2646)" class="st1 st2">SBU2</text>
	<text transform="matrix(1 0 0 1 249.5905 189.2079)" class="st1 st2">D−</text>
	<text transform="matrix(1 0 0 1 287.3669 189.2268)" class="st1 st2">D+</text>
	<text transform="matrix(1 0 0 1 321.6905 189.2268)" class="st1 st2">CC2</text>
	<text transform="matrix(1 0 0 1 395.1936 189.2268)" class="st1 st2">TX2−</text>
	<text transform="matrix(1 0 0 1 355.5966 189.2268)" class="st1 st2">VBUS</text>
	<text transform="matrix(1 0 0 1 432.9889 189.2268)" class="st1 st2">TX2+</text>
	<text transform="matrix(1 0 0 1 56.0151 189.2268)" class="st1 st2">GND</text>
	<text transform="matrix(1 0 0 1 471.7632 189.2268)" class="st1 st2">GND</text>
</g>
<g>
	<rect x="89.8" y="176.5" class="st3" width="30.3" height="19"/>
	<rect x="127.5" y="176.5" class="st3" width="30.3" height="19"/>
	<rect x="165.3" y="176.5" class="st3" width="30.3" height="19"/>
	<rect x="203.1" y="176.5" class="st3" width="30.3" height="19"/>
	<rect x="240.9" y="176.4" class="st3" width="30.3" height="19"/>
	<rect x="278.7" y="176.5" class="st3" width="30.3" height="19"/>
	<rect x="316.5" y="176.5" class="st3" width="30.3" height="19"/>
	<rect x="392.1" y="176.5" class="st3" width="30.3" height="19"/>
	<rect x="354.3" y="176.5" class="st3" width="30.3" height="19"/>
	<rect x="429.9" y="176.5" class="st3" width="30.3" height="19"/>
	<rect x="52" y="176.5" class="st3" width="30.3" height="19"/>
	<rect x="467.7" y="176.5" class="st3" width="30.3" height="19"/>
</g>
<g>
	<text transform="matrix(1 0 0 1 130.07 64.5022)" class="st1 st2">TX1−</text>
	<text transform="matrix(1 0 0 1 166.6204 64.5022)" class="st1 st2">VBUS</text>
	<text transform="matrix(1 0 0 1 208.3236 64.5022)" class="st1 st2">CC1</text>
	<text transform="matrix(1 0 0 1 249.5716 64.5022)" class="st1 st2">D+</text>
	<text transform="matrix(1 0 0 1 287.3669 64.5022)" class="st1 st2">D−</text>
	<text transform="matrix(1 0 0 1 318.3555 64.5022)" class="st1 st2">SBU1</text>
	<text transform="matrix(1 0 0 1 394.637 64.5022)" class="st1 st2">RX2−</text>
	<text transform="matrix(1 0 0 1 355.5966 64.5022)" class="st1 st2">VBUS</text>
	<text transform="matrix(1 0 0 1 432.4323 64.5022)" class="st1 st2">RX2+</text>
	<text transform="matrix(1 0 0 1 92.8314 64.5022)" class="st1 st2">TX1+</text>
	<text transform="matrix(1 0 0 1 56.0151 64.5022)" class="st1 st2">GND</text>
	<text transform="matrix(1 0 0 1 471.7632 64.5022)" class="st1 st2">GND</text>
	<text transform="matrix(1 0 0 1 56.0151 64.5022)" class="st1 st2">GND</text>
</g>
<g>
	<rect x="127.5" y="51.7" class="st3" width="30.3" height="19"/>
	<rect x="165.3" y="51.7" class="st3" width="30.3" height="19"/>
	<rect x="203.2" y="51.7" class="st3" width="30.3" height="19"/>
	<rect x="240.9" y="51.7" class="st3" width="30.3" height="19"/>
	<rect x="278.7" y="51.7" class="st3" width="30.3" height="19"/>
	<rect x="316.5" y="51.7" class="st3" width="30.3" height="19"/>
	<rect x="392.1" y="51.7" class="st3" width="30.3" height="19"/>
	<rect x="354.3" y="51.7" class="st3" width="30.3" height="19"/>
	<rect x="429.9" y="51.7" class="st3" width="30.3" height="19"/>
	<rect x="89.7" y="51.7" class="st3" width="30.3" height="19"/>
	<rect x="52" y="51.7" class="st3" width="30.3" height="19"/>
	<rect x="467.7" y="51.7" class="st3" width="30.3" height="19"/>
</g>
</svg>
