<?xml version="1.0" encoding="utf-8"?>
<!DOCTYPE svg PUBLIC "-//W3C//DTD SVG 1.1//EN" "http://www.w3.org/Graphics/SVG/1.1/DTD/svg11.dtd">
<svg version="1.1" xmlns="http://www.w3.org/2000/svg" x="0" y="0" width="450" height="300" viewBox="0 0 450 300">
<style type="text/css">
	.st0{fill:#B3B3B3;stroke:#000;stroke-width:10;}
	.st1{fill:#E6E6E6;stroke:#000;stroke-width:4;stroke-linejoin:round;}
	.st2{fill:#FFFF00;stroke:#000;stroke-linejoin:round;}
	.st3{fill:#FFFFFF;stroke:#000;stroke-linejoin:round;}
	.st4{fill:#B3B3B3;stroke:#000;stroke-width:2;stroke-linejoin:round;}
	.st5{font-family:Liberation Sans,Arial;}
	.st6{font-size:48px;}
	.st7{font-size:60px;}
</style>
<g id="usb">
	<path class="st0" d="M366.5,167.5H83.5c-5.2,0-9.5-4.2-9.5-9.5v-53.1c0-5.2,4.2-9.5,9.5-9.5h283.1c5.2,0,9.5,4.2,9.5,9.5V158
		C376,163.2,371.8,167.5,366.5,167.5z"/>
	<rect x="145.5" y="98.5" class="st1" width="162" height="31"/>
	<g id="pins">
		<rect x="223" y="117.5" class="st2" width="7" height="25"/>
		<rect x="192.4" y="117.5" class="st2" width="7" height="25"/>
		<rect x="161.8" y="117.5" class="st2" width="7" height="25"/>
		<rect x="253.6" y="117.5" class="st2" width="7" height="25"/>
		<rect x="284.2" y="117.5" class="st2" width="7" height="25"/>
		<rect x="161.8" y="142.5" class="st3" width="7" height="10"/>
		<rect x="192.4" y="142.5" class="st3" width="7" height="10"/>
		<rect x="223" y="142.5" class="st3" width="7" height="10"/>
		<rect x="253.6" y="142.5" class="st3" width="7" height="10"/>
		<rect x="284.2" y="142.5" class="st3" width="7" height="10"/>
	</g>
	<path d="M232.6,90.7h-13.3c-1,0-1.9-0.8-1.9-1.9v-0.3c0-1,0.8-1.9,1.9-1.9h13.3c1,0,1.9,0.8,1.9,1.9v0.3
		C234.5,89.9,233.7,90.7,232.6,90.7z"/>
	<path d="M158.5,90.7h-13.3c-1,0-1.9-0.8-1.9-1.9v-0.3c0-1,0.8-1.9,1.9-1.9h13.3c1,0,1.9,0.8,1.9,1.9v0.3
		C160.4,89.9,159.6,90.7,158.5,90.7z"/>
	<path d="M309.5,90.7h-13.3c-1,0-1.9-0.8-1.9-1.9v-0.3c0-1,0.8-1.9,1.9-1.9h13.3c1,0,1.9,0.8,1.9,1.9v0.3
		C311.4,89.9,310.6,90.7,309.5,90.7z"/>
	<rect x="108.1" y="66.7" class="st4" width="18" height="25"/>
	<rect x="323.9" y="66.7" class="st4" width="18" height="25"/>
</g>
<g id="text">
	<text transform="matrix(1 0 0 1 182 71)" class="st5 st6">4</text>
	<text transform="matrix(1 0 0 1 120 256)" class="st5 st7">Micro-A</text>
	<text transform="matrix(1 0 0 1 152 71)" class="st5 st6">5</text>
	<text transform="matrix(1 0 0 1 213 71)" class="st5 st6">3</text>
	<text transform="matrix(1 0 0 1 244 71)" class="st5 st6">2</text>
	<text transform="matrix(1 0 0 1 274 71)" class="st5 st6">1</text>
</g>
</svg>
