<?xml version="1.0" encoding="utf-8"?>
<!DOCTYPE svg PUBLIC "-//W3C//DTD SVG 1.1//EN" "http://www.w3.org/Graphics/SVG/1.1/DTD/svg11.dtd">
<svg version="1.1" xmlns="http://www.w3.org/2000/svg" x="0px" y="0px" width="700" height="300" viewBox="0 0 700 300">
<style type="text/css">
	.st0{fill:#E6E6E6;stroke:#000000;stroke-width:2;stroke-linecap:round;stroke-linejoin:round;stroke-miterlimit:3;}
	.st1{fill:#B3B3B3;stroke:#000000;stroke-width:2;stroke-linejoin:round;}
	.st2{fill:none;stroke:#000000;stroke-width:8;stroke-linejoin:round;}
	.st3{fill:#FFFF00;stroke:#000000;stroke-linejoin:round;}
	.st4{fill:#FFFFFF;stroke:#000000;stroke-linejoin:round;}
	.st5{fill:none;stroke:#000000;stroke-width:4;stroke-linecap:round;stroke-miterlimit:10;}
	.st6{font-family:Liberation Sans,sans-serif;}
	.st7{font-size:48px;}
	.st8{font-size:60px;}
</style>
<path class="st0" d="M71.1,128.6h185.6V89.9H83.2c-7.4,0.6-11.4,4.7-12.1,12.1V128.6L71.1,128.6z"/>
<path class="st1" d="M82.2,128.6h163.9h10.6v25.1c-0.6,7.3-4.6,11.3-12.1,12.1H83.2c-7.9-0.7-11.4-5.2-12.1-12.1v-25.1H82.2z"/>
<path class="st1" d="M326.8,89.9H634c3,0.2,4.6,2,4.9,4.9v34.7c-0.4,4.7-1.9,7.3-4,9l-26.4,24.1c-2,2-4.8,3-8.2,3.2H365.4
	c-3,0-5.8-1.1-8.2-3.2l-26.4-24.1c-2.6-2.5-4.1-5.4-4-9V89.9z"/>
<rect x="398.8" y="91.8" class="st0" width="168" height="37"/>
<path class="st2" d="M613,158.4c7.5-6.9,21.9-20,21.9-20c2.5-2.3,4-5.5,4-9V94.8c0-2.7-2.2-4.9-4.9-4.9H85.9c-1.3,0-2.6,0-2.6,0
	c-6.7,0-12.1,5.4-12.1,12.1v26.6v25.1c0,6.7,5.4,12.1,12.1,12.1H164h80.6c6.7,0,12.1-5.4,12.1-12.1v-19.2v-32.4h70.1v27.4
	c0,3.4,1.4,6.7,4,9l26.4,24.1c2.2,2,5.1,3.2,8.2,3.2h234.9c3,0,5.9-1.1,8.2-3.2C608.5,162.6,610.3,160.9,613,158.4z"/>
<rect x="365.9" y="61.9" class="st1" width="18" height="25"/>
<rect x="581.7" y="61.9" class="st1" width="18" height="25"/>
<rect x="479.3" y="114.3" class="st3" width="7" height="25"/>
<rect x="448.7" y="114.3" class="st3" width="7" height="25"/>
<rect x="418.1" y="114.3" class="st3" width="7" height="25"/>
<rect x="509.9" y="114.3" class="st3" width="7" height="25"/>
<rect x="540.5" y="114.3" class="st3" width="7" height="25"/>
<rect x="418.1" y="139.3" class="st4" width="7" height="10"/>
<rect x="448.7" y="139.3" class="st4" width="7" height="10"/>
<rect x="479.3" y="139.3" class="st4" width="7" height="10"/>
<rect x="509.9" y="139.3" class="st4" width="7" height="10"/>
<rect x="540.5" y="139.3" class="st4" width="7" height="10"/>
<rect x="160.8" y="114.3" class="st3" width="7" height="25"/>
<rect x="130.2" y="114.3" class="st3" width="7" height="25"/>
<rect x="99.6" y="114.3" class="st3" width="7" height="25"/>
<rect x="191.4" y="114.3" class="st3" width="7" height="25"/>
<rect x="222" y="114.3" class="st3" width="7" height="25"/>
<rect x="99.6" y="139.3" class="st4" width="7" height="10"/>
<rect x="130.2" y="139.3" class="st4" width="7" height="10"/>
<rect x="160.8" y="139.3" class="st4" width="7" height="10"/>
<rect x="191.4" y="139.3" class="st4" width="7" height="10"/>
<rect x="222" y="139.3" class="st4" width="7" height="10"/>
<line class="st5" x1="403.1" y1="83.8" x2="416.3" y2="83.8"/>
<line class="st5" x1="476.3" y1="83.8" x2="489.4" y2="83.8"/>
<line class="st5" x1="554.1" y1="83.8" x2="567.2" y2="83.8"/>
<text transform="matrix(1 0 0 1 407.7929 74.3541)" class="st6 st7">5</text>
<text transform="matrix(1 0 0 1 438.7929 74.3541)" class="st6 st7">4</text>
<text transform="matrix(1 0 0 1 468.7929 74.3541)" class="st6 st7">3</text>
<text transform="matrix(1 0 0 1 499.7929 74.3541)" class="st6 st7">2</text>
<text transform="matrix(1 0 0 1 530.7929 74.3541)" class="st6 st7">1</text>
<text transform="matrix(1 0 0 1 62.5935 74.3542)" class="st6 st7">10</text>
<text transform="matrix(1 0 0 1 119.5935 74.3542)" class="st6 st7">9</text>
<text transform="matrix(1 0 0 1 149.5935 74.3542)" class="st6 st7">8</text>
<text transform="matrix(1 0 0 1 180.5935 74.3542)" class="st6 st7">7</text>
<text transform="matrix(1 0 0 1 211.5935 74.3542)" class="st6 st7">6</text>
<text transform="matrix(1 0 0 1 77.1209 259.989)" class="st6 st8">Micro-B SuperSpeed</text>
</svg>
