<?xml version="1.0" encoding="UTF-8"?>
<!DOCTYPE svg PUBLIC "-//W3C//DTD SVG 1.1//EN" "http://www.w3.org/Graphics/SVG/1.1/DTD/svg11.dtd">
<svg width="300" height="380" version="1.1" viewBox="0 0 300 380" xmlns="http://www.w3.org/2000/svg">
 <style type="text/css">.st0{fill:#E6E6E6;stroke:#000000;stroke-width:5;}
	.st1{fill:#37ABED;stroke:#000000;stroke-width:1.3;}
	.st2{fill:#FFFF00;stroke:#000000;stroke-width:1.3;}
	.st3{fill:#FFFF00;stroke:#000000;}
	.st4{fill:#FFFFFF;stroke:#000000;}
	.st5{font-family:Liberation Sans,sans-serif;}
	.st6{font-size:41px;}
	.st7{font-size:45px;}</style>
 <path class="st0" d="m96.2 121.8-20.9 19.7c-2.8 2.9-4.5 6.7-4.7 10.7v94.6c0 6.9 6 12.5 13.3 12.5h139.4c7.3 0 13.3-5.6 13.3-12.5v-94.5c-0.2-4-1.9-7.8-4.7-10.7l-20.8-19.7c-2.6-2.4-6.3-4.8-6-6.1l-0.1-53.3c0-3.7-3-6.7-6.7-6.7h-90.4c-3.7 0-6.7 3-6.7 6.7v53.3c0.1 2.3-2.4 3.7-5 6z"/>
 <rect class="st1" x="92.8" y="148.7" width="121.6" height="79.7" ry="4"/>
 <rect class="st1" x="110.38" y="65.382" width="85.236" height="24.136" ry="4"/>
 <rect class="st2" x="114.8" y="139.9" width="20.8" height="10.5"/>
 <rect class="st2" x="172.5" y="139.9" width="20.8" height="10.5"/>
 <rect class="st2" x="114.8" y="225.6" width="20.8" height="11.1"/>
 <rect class="st2" x="172.5" y="225.7" width="20.8" height="10.9"/>
 <rect class="st3" x="117.8" y="78.2" width="4.2" height="18.9"/>
 <rect class="st3" x="185.1" y="78.2" width="4.2" height="18.9"/>
 <rect class="st3" x="168.3" y="78.2" width="4.2" height="18.9"/>
 <rect class="st3" x="151.4" y="78.2" width="4.2" height="18.9"/>
 <rect class="st3" x="134.6" y="78.2" width="4.2" height="18.9"/>
 <text class="st5 st6" transform="translate(247.6 161.09)">1</text>
 <text class="st5 st6" transform="translate(36.899 161.09)">2</text>
 <text class="st5 st6" transform="translate(36.899 245.09)">3</text>
 <text class="st5 st6" transform="translate(247.6 245.09)">4</text>
 <text class="st5 st6" transform="translate(184.39 47.086)">5</text>
 <text class="st5 st6" transform="translate(163.2 47.086)">6</text>
 <text class="st5 st6" transform="translate(144.1 47.086)">7</text>
 <text class="st5 st6" transform="translate(122.6 47.086)">8</text>
 <text class="st5 st6" transform="translate(101.2 47.086)">9</text>
 <text class="st5 st7" transform="translate(82.27 310.21)">Type-B</text>
 <text class="st5 st7" transform="translate(27.73 355.42)">SuperSpeed</text>
</svg>
