<?xml version="1.0" encoding="utf-8"?>
<!DOCTYPE svg PUBLIC "-//W3C//DTD SVG 1.1//EN" "http://www.w3.org/Graphics/SVG/1.1/DTD/svg11.dtd">
<!-- Generator: Adobe Illustrator 22.1.0, SVG Export Plug-In . SVG Version: 6.00 Build 0)  -->
<svg version="1.1" id="Calque_1" xmlns="http://www.w3.org/2000/svg" xmlns:xlink="http://www.w3.org/1999/xlink" x="0px" y="0px"
	 width="550px" height="300px" viewBox="0 0 550 300" style="enable-background:new 0 0 550 300;" xml:space="preserve">
<style type="text/css">
	.st0{fill:#E6E6E6;stroke:#000000;stroke-width:2;stroke-miterlimit:10;}
	.st1{fill:#37ABED;stroke:#000000;stroke-width:2;}
	.st2{fill:none;stroke:#000000;stroke-width:8;}
	.st3{fill:#FFFF00;stroke:#000000;stroke-width:2;}
	.st4{font-family:Liberation Sans,sans-serif;}
	.st5{font-size:60px;}
	.st6{font-size:48px;}
</style>
<path class="st0" d="M445.4,55H104.6c-4.5,0-8.1,3.6-8.1,8.1V122h357V63.1C453.5,58.6,449.9,55,445.4,55z"/>
<path class="st1" d="M445.4,166H104.6c-4.5,0-8.1-3.6-8.1-8.1V122h357v35.9C453.5,162.4,449.9,166,445.4,166z"/>
<path class="st2" d="M442.3,167H107.8c-6.3,0-11.3-5.1-11.3-11.3V66.3c0-6.3,5.1-11.3,11.3-11.3h334.4c6.3,0,11.3,5.1,11.3,11.3
	v89.3C453.6,161.9,448.5,167,442.3,167z"/>
<rect x="136" y="116" class="st3" width="35" height="14"/>
<rect x="217" y="116" class="st3" width="35" height="14"/>
<rect x="298" y="116" class="st3" width="35" height="14"/>
<rect x="379" y="116" class="st3" width="35" height="14"/>
<rect x="126" y="91" class="st3" width="15" height="14"/>
<rect x="197" y="91" class="st3" width="15" height="14"/>
<rect x="267" y="91" class="st3" width="15" height="14"/>
<rect x="338" y="91" class="st3" width="15" height="14"/>
<rect x="408" y="91" class="st3" width="15" height="14"/>
<text transform="matrix(1 0 0 1 6.4797 279.5222)" class="st4 st5">Type-A SuperSpeed</text>
<g>
	<text transform="matrix(1 0 0 1 139.9527 211.1011)" class="st4 st6">4</text>
	<text transform="matrix(1 0 0 1 226.9108 211.1011)" class="st4 st6">3</text>
	<text transform="matrix(1 0 0 1 296.2888 211.1011)" class="st4 st6">2</text>
	<text transform="matrix(1 0 0 1 383.3521 211.1011)" class="st4 st6">1</text>
</g>
<g>
	<text transform="matrix(1 0 0 1 114.3382 42.7964)" class="st4 st6">5</text>
	<text transform="matrix(1 0 0 1 188.2061 43.1011)" class="st4 st6">6</text>
	<text transform="matrix(1 0 0 1 261.5936 43.1011)" class="st4 st6">7</text>
	<text transform="matrix(1 0 0 1 335.356 43.1011)" class="st4 st6">8</text>
	<text transform="matrix(1 0 0 1 408.9662 43.1011)" class="st4 st6">9</text>
</g>
</svg>
