<?xml version="1.0" encoding="utf-8"?>
<!DOCTYPE svg PUBLIC "-//W3C//DTD SVG 1.1//EN" "http://www.w3.org/Graphics/SVG/1.1/DTD/svg11.dtd">
<svg version="1.1" xmlns="http://www.w3.org/2000/svg" x="0" y="0" width="450" height="300" viewBox="0 0 450 300">
<style type="text/css">
	.st0{fill:#B3B3B3;stroke:#000;stroke-width:5;}
	.st1{fill:#B3B3B3;}
	.st2{fill:none;stroke:#000;stroke-width:5;}
	.st3{fill:none;stroke:#000;stroke-width:4;}
	.st4{fill:#808080;stroke:#000;stroke-width:5;}
	.st5{fill:#ccc;stroke:#000;stroke-width:5;}
	.st6{fill:#FCEE21;stroke:#000;stroke-width:3;}
	.st7{font-family:Liberation Sans,Arial;}
	.st8{font-size:48px;}
	.st9{font-size:60px;}
</style>
<g id="usb">
	<g>
		<path class="st0" d="M349.7,204.1h-1.6V82.3h1.6c26.5,0,48,21.5,48,48V156C397.7,182.6,376.3,204.1,349.7,204.1z"/>
		<rect x="20.3" y="194.5" class="st0" width="60" height="13.5"/>
		<rect x="369.7" y="194.5" class="st0" width="60" height="13.5"/>
		<path class="st0" d="M100.3,204.1h1.6V82.3h-1.6c-26.5,0-48,21.5-48,48V156C52.3,182.6,73.7,204.1,100.3,204.1z"/>
		<g>
			<g>
				<path class="st1" d="M206.1,218.3h-85.4c-10.4,0-18.9-8.5-18.9-18.9v-9.6H225v9.6C225,209.8,216.5,218.3,206.1,218.3z"/>
				<path class="st1" d="M206.8,208h-86.7c-10.1,0-18.2-8.2-18.2-18.2v0H225v0C225,199.9,216.8,208,206.8,208z"/>
				<path class="st1" d="M329.3,218.3h-85.4c-10.4,0-18.9-8.5-18.9-18.9v-9.6h123.2v9.6C348.2,209.8,339.7,218.3,329.3,218.3z"/>
				<path class="st1" d="M329.9,208h-86.7c-10.1,0-18.2-8.2-18.2-18.2v0h123.2v0C348.2,199.9,340,208,329.9,208z"/>
			</g>
			<g>
				<path class="st2" d="M206.1,218.3h-85.4c-10.4,0-18.9-8.5-18.9-18.9v-9.6H225v9.6C225,209.8,216.5,218.3,206.1,218.3z"/>
				<path class="st3" d="M206.8,208h-86.7c-10.1,0-18.2-8.2-18.2-18.2v0H225v0C225,199.9,216.8,208,206.8,208z"/>
				<path class="st2" d="M329.3,218.3h-85.4c-10.4,0-18.9-8.5-18.9-18.9v-9.6h123.2v9.6C348.2,209.8,339.7,218.3,329.3,218.3z"/>
				<path class="st3" d="M329.9,208h-86.7c-10.1,0-18.2-8.2-18.2-18.2v0h123.2v0C348.2,199.9,340,208,329.9,208z"/>
			</g>
			<g>
				<path class="st2" d="M206.1,218.3h-85.4c-10.4,0-18.9-8.5-18.9-18.9v-9.6H225v9.6C225,209.8,216.5,218.3,206.1,218.3z"/>
				<path class="st2" d="M206.8,208h-86.7c-10.1,0-18.2-8.2-18.2-18.2v0H225v0C225,199.9,216.8,208,206.8,208z"/>
				<path class="st2" d="M329.3,218.3h-85.4c-10.4,0-18.9-8.5-18.9-18.9v-9.6h123.2v9.6C348.2,209.8,339.7,218.3,329.3,218.3z"/>
				<path class="st2" d="M329.9,208h-86.7c-10.1,0-18.2-8.2-18.2-18.2v0h123.2v0C348.2,199.9,340,208,329.9,208z"/>
			</g>
		</g>
		<path class="st0" d="M370,97.3H80v-3.9c0-14.4,11.7-26.1,26.1-26.1h237.8c14.4,0,26.1,11.7,26.1,26.1V97.3z"/>
		<path class="st2" d="M370,97.3H80v0c0-10,8.1-18.2,18.2-18.2h253.6C361.9,79.1,370,87.3,370,97.3L370,97.3z"/>
		<path class="st0" d="M58.5,164.8H64v-55h-5.5c-12.4,0-22.5,10.1-22.5,22.5v10C36,154.7,46.1,164.8,58.5,164.8z"/>
		<path class="st2" d="M64,164.8L64,164.8l0-55h0c-9,0-16.3,7.3-16.3,16.3v22.4C47.7,157.5,55,164.8,64,164.8z"/>
		<path class="st0" d="M391.5,164.8H386v-55h5.5c12.4,0,22.5,10.1,22.5,22.5v10C414,154.7,403.9,164.8,391.5,164.8z"/>
		<path class="st2" d="M386,164.8L386,164.8l0-55h0c9,0,16.3,7.3,16.3,16.3v22.4C402.3,157.5,395,164.8,386,164.8z"/>
		<path class="st4" d="M358.9,189.8H91.1c-14.9,0-27.1-12.1-27.1-27.1v-38.4c0-14.9,12.1-27.1,27.1-27.1h267.8
			c14.9,0,27.1,12.1,27.1,27.1v38.4C386,177.7,373.9,189.8,358.9,189.8z"/>
		<path class="st5" d="M295.3,111H154.7c-5.5,0-10,4.5-10,10v9.9c0,5.5,4.5,10,10,10h0.2l1.2-11.9H173l1.2,11.9h11l1.2-11.9h16.9
			l1.2,11.9h11l1.2-11.9h16.9l1.2,11.9h11l1.2-11.9h16.9l1.2,11.9h11L277,129h16.9l1.2,11.9h0.2c5.5,0,10-4.5,10-10V121
			C305.3,115.4,300.8,111,295.3,111z"/>
		<polygon class="st6" points="173.7,135.5 155.5,135.5 156.2,129 173,129 		"/>
		<polygon class="st6" points="203.9,135.5 185.7,135.5 186.4,129 203.2,129 		"/>
		<polygon class="st6" points="234.1,135.5 215.9,135.5 216.6,129 233.4,129 		"/>
		<polygon class="st6" points="264.3,135.5 246.1,135.5 246.8,129 263.7,129 		"/>
		<polygon class="st6" points="294.5,135.5 276.4,135.5 277,129 293.9,129 		"/>
	</g>
</g>
<g id="text">
	<text transform="matrix(1 0 0 1 150 50)" class="st7 st8">1</text>
	<text transform="matrix(1 0 0 1 181 50)" class="st7 st8">2</text>
	<text transform="matrix(1 0 0 1 213 50)" class="st7 st8">3</text>
	<text transform="matrix(1 0 0 1 242 50)" class="st7 st8">4</text>
	<text transform="matrix(1 0 0 1 272 50)" class="st7 st8">5</text>
	<text transform="matrix(1 0 0 1 102 279)" class="st7 st9">Micro-AB</text>	
</g>
</svg>
