<?xml version="1.0" encoding="utf-8"?>
<!DOCTYPE svg PUBLIC "-//W3C//DTD SVG 1.1//EN" "http://www.w3.org/Graphics/SVG/1.1/DTD/svg11.dtd">
<svg version="1.1" xmlns="http://www.w3.org/2000/svg" x="0" y="0" width="450" height="300" viewBox="0 0 450 300">
<style type="text/css">
	.st0{fill:#999;stroke:#000;stroke-width:8;stroke-linejoin:round;}
	.st1{fill:#E6E6E6;stroke:#000;stroke-width:4;stroke-linejoin:round;}
	.st2{fill:#FCEE21;stroke:#000;stroke-linejoin:round;}
	.st3{font-family:Liberation Sans,Arial;}
	.st4{font-size:60px;}
	.st5{font-size:48px;}
</style>
<g id="usb">
	<path class="st0" d="M106.5,94.8v27.5c0,2.6,2.1,4.8,4.8,4.8h8.4c1.8,0,3.6,0.6,5,1.8l28.7,24.4c1.4,1.2,3.1,1.8,5,1.8h133.4
		c1.8,0,3.6-0.6,5-1.8l28.7-24.4c1.4-1.2,3.1-1.8,5-1.8h8.4c2.6,0,4.8-2.1,4.8-4.8V94.8c0-2.6-2.1-4.8-4.8-4.8H111.3
		C108.6,90,106.5,92.1,106.5,94.8z"/>
	<path class="st1" d="M121.5,127.2c1.2,0.3,2.3,0.8,3.2,1.6l28.7,24.4c1.4,1.2,3.1,1.8,5,1.8h133.4c1.8,0,3.6-0.6,5-1.8l28.7-24.4
		c0.9-0.8,2-1.3,3.2-1.6v-22.5H121.5V127.2z"/>
	<g id="pins">
		<rect x="134.1" y="99.2" class="st2" width="25" height="13"/>
		<rect x="173.3" y="99.2" class="st2" width="25" height="13"/>
		<rect x="212.5" y="99.2" class="st2" width="25" height="13"/>
		<rect x="251.7" y="99.2" class="st2" width="25" height="13"/>
		<rect x="290.9" y="99.2" class="st2" width="25" height="13"/>
	</g>
</g>
<g id="text">
	<text transform="matrix(1 0 0 1 138 243)" class="st3 st4">Mini-A</text>
	<text transform="matrix(1 0 0 1 172 78)" class="st3 st5">4</text>
	<text transform="matrix(1 0 0 1 133 78)" class="st3 st5">5</text>
	<text transform="matrix(1 0 0 1 212 78)" class="st3 st5">3</text>
	<text transform="matrix(1 0 0 1 251 78)" class="st3 st5">2</text>
	<text transform="matrix(1 0 0 1 290 78)" class="st3 st5">1</text>
</g>
</svg>
