<?xml version="1.0" encoding="utf-8"?>
<!DOCTYPE svg PUBLIC "-//W3C//DTD SVG 1.1//EN" "http://www.w3.org/Graphics/SVG/1.1/DTD/svg11.dtd">
<svg version="1.1" xmlns="http://www.w3.org/2000/svg" x="0px" y="0px" width="300" height="380" viewBox="0 0 300 380">
<style type="text/css">
	.st0{fill:#37ABED;stroke:#000000;stroke-width:5;}
	.st1{fill:#E6E6E6;stroke:#000000;stroke-width:1.3;}
	.st2{fill:#FFFF00;stroke:#000000;stroke-width:1.3;}
	.st3{fill:#FFFF00;stroke:#000000;}
	.st4{fill:#FFFFFF;stroke:#000000;}
	.st5{font-family:Liberation Sans,sans-serif;}
	.st6{font-size:41px;}
	.st7{font-size:45px;}
</style>
<path class="st0" d="M96.2,121.8l-20.9,19.7c-2.8,2.9-4.5,6.7-4.7,10.7v94.6c0,6.9,6,12.5,13.3,12.5h139.4c7.3,0,13.3-5.6,13.3-12.5
	v-94.5c-0.2-4-1.9-7.8-4.7-10.7l-20.8-19.7c-2.6-2.4-6.3-4.8-6-6.1L205,62.5c0-3.7-3-6.7-6.7-6.7l0,0h-90.4c-3.7,0-6.7,3-6.7,6.7
	l0,0v53.3C101.3,118.1,98.8,119.5,96.2,121.8L96.2,121.8z"/>
<rect x="92.8" y="148.7" class="st1" width="121.6" height="79.7"/>
<rect x="114.8" y="139.9" class="st2" width="20.8" height="10.5"/>
<rect x="172.5" y="139.9" class="st2" width="20.8" height="10.5"/>
<rect x="114.8" y="225.6" class="st2" width="20.8" height="11.1"/>
<rect x="172.5" y="225.7" class="st2" width="20.8" height="10.9"/>
<rect x="103.5" y="58.5" class="st1" width="99" height="30.9"/>
<rect x="117.8" y="78.2" class="st3" width="4.2" height="18.9"/>
<rect x="185.1" y="78.2" class="st3" width="4.2" height="18.9"/>
<rect x="168.3" y="78.2" class="st3" width="4.2" height="18.9"/>
<rect x="151.4" y="78.2" class="st3" width="4.2" height="18.9"/>
<rect x="134.6" y="78.2" class="st3" width="4.2" height="18.9"/>
<rect x="117.8" y="92.8" class="st4" width="4.2" height="4.4"/>
<rect x="134.6" y="92.8" class="st4" width="4.2" height="4.4"/>
<rect x="151.5" y="92.8" class="st4" width="4.2" height="4.4"/>
<rect x="168.3" y="92.8" class="st4" width="4.2" height="4.4"/>
<rect x="185.1" y="92.8" class="st4" width="4.2" height="4.4"/>
<text transform="matrix(1 0 0 1 36.899 161.0857)" class="st5 st6">1</text>
<text transform="matrix(1 0 0 1 247.5988 161.0857)" class="st5 st6">2</text>
<text transform="matrix(1 0 0 1 247.5988 245.0858)" class="st5 st6">3</text>
<text transform="matrix(1 0 0 1 36.8987 245.0861)" class="st5 st6">4</text>
<text transform="matrix(1 0 0 1 101.199 47.086)" class="st5 st6">5</text>
<text transform="matrix(1 0 0 1 122.6001 47.086)" class="st5 st6">6</text>
<text transform="matrix(1 0 0 1 144.0999 47.0859)" class="st5 st6">7</text>
<text transform="matrix(1 0 0 1 163.1987 47.086)" class="st5 st6">8</text>
<text transform="matrix(1 0 0 1 184.3908 47.086)" class="st5 st6">9</text>
<text transform="matrix(1 0 0 1 82.2704 310.2103)" class="st5 st7">Type-B</text>
<text transform="matrix(1 0 0 1 27.7303 355.4201)" class="st5 st7">SuperSpeed</text>
</svg>
