<?xml version="1.0" encoding="utf-8"?>
<!DOCTYPE svg PUBLIC "-//W3C//DTD SVG 1.1//EN" "http://www.w3.org/Graphics/SVG/1.1/DTD/svg11.dtd">
<svg version="1.1" xmlns="http://www.w3.org/2000/svg" xmlns:xlink="http://www.w3.org/1999/xlink" x="0" y="0" width="220" height="265" viewBox="0 0 220 265">
<style type="text/css">
	.st0{fill:#B3B3B3;stroke:#000;stroke-width:6;}
	.st1{fill:#E6E6E6;stroke:#000;stroke-width:2;}
	.st2{fill:#FFFF00;stroke:#000;}
	.st3{font-family:Liberation Sans,sans-serif;}
	.st4{font-size:36px;}
</style>
<g id="usb">
	<path class="st0" d="M177,64.4l-17.5-17.5c-2.9-2.9-8.6-5.2-12.6-5.2H73.1c-4.1,0-9.7,2.4-12.6,5.2L43,64.4c-1.3,1.3-2,3-2,4.8
		v81.2c0,5.3,4.3,9.7,9.7,9.7h118.6c5.3,0,9.7-4.3,9.7-9.7V69.2C178.9,67.4,178.2,65.7,177,64.4z"/>
	<path class="st1" d="M157.3,134.4H62.7c-1.8,0-3.2-1.4-3.2-3.2V70.6c0-1.8,1.4-3.2,3.2-3.2h94.6c1.8,0,3.2,1.4,3.2,3.2v60.6
		C160.5,132.9,159.1,134.4,157.3,134.4z"/>
	<rect x="77.2" y="62.8" class="st2" width="18" height="7"/>
	<rect x="124.8" y="62.8" class="st2" width="18" height="7"/>
	<rect x="77.2" y="131.9" class="st2" width="18" height="7"/>
	<rect x="124.8" y="131.9" class="st2" width="18" height="7"/>
</g>
<g id="text">
	<text transform="matrix(1 0 0 1 123.7861 34.9149)" class="st3 st4">2</text>
	<text transform="matrix(1 0 0 1 76.192 34.9149)" class="st3 st4">1</text>
	<text transform="matrix(1 0 0 1 123.7861 193.2128)" class="st3 st4">3</text>
	<text transform="matrix(1 0 0 1 76.192 193.2128)" class="st3 st4">4</text>
	<text transform="matrix(1 0 0 1 52.9764 243)" class="st3 st4">Type-B</text>
</g>
</svg>
