<?xml version="1.0" encoding="utf-8"?>
<!DOCTYPE svg PUBLIC "-//W3C//DTD SVG 1.1//EN" "http://www.w3.org/Graphics/SVG/1.1/DTD/svg11.dtd">
<svg version="1.1" xmlns="http://www.w3.org/2000/svg" x="0" y="0" width="450" height="300" viewBox="0 0 450 300">
<style type="text/css">
	.st0{fill:#999;stroke:#000;stroke-width:7;}
	.st1{fill:#E6E6E6;stroke:#000;stroke-width:4;}
	.st2{fill:#FCEE21;stroke:#000;stroke-width:2;}
	.st3{font-family:Liberation Sans,Arial;}
	.st4{font-size:60px;}
	.st5{font-size:48px;}
</style>
<g id="usb">
	<g>
		<path class="st0" d="M344.6,98.8H105.4c-3.4,0-6.4,2.4-7,5.7c-0.4,2.1-0.7,4.8-0.7,8c0,5.4,0.9,10.2,1.6,13
			c0.4,1.8,1.5,3.4,3.1,4.5l11,7.6c2.1,1.4,3.3,3.8,3.3,6.2v24.2h216.7v-24.2c0-2.5,1.2-4.8,3.3-6.2l11-7.6c1.5-1.1,2.6-2.6,3.1-4.5
			c0.7-2.9,1.6-7.6,1.6-13c0-3.2-0.3-5.9-0.7-8C350.9,101.2,348,98.8,344.6,98.8z"/>
		<rect x="117" y="113.1" class="st1" width="216" height="55"/>
		<rect x="127.5" y="109.5" class="st2" width="28" height="13"/>
		<rect x="169.2" y="109.5" class="st2" width="28" height="13"/>
		<rect x="211" y="109.5" class="st2" width="28" height="13"/>
		<rect x="252.8" y="109.5" class="st2" width="28" height="13"/>
		<rect x="294.5" y="109.5" class="st2" width="28" height="13"/>
	</g>
</g>
<g id="text">
	<text transform="matrix(1 0 0 1 139.9952 259.0214)" class="st3 st4">Mini-B</text>
	<g>
		<text transform="matrix(1 0 0 1 128.1499 87.7296)" class="st3 st5">5</text>
		<text transform="matrix(1 0 0 1 169.9008 87.7296)" class="st3 st5">4</text>
		<text transform="matrix(1 0 0 1 211.6524 87.7296)" class="st3 st5">3</text>
		<text transform="matrix(1 0 0 1 253.4031 87.7296)" class="st3 st5">2</text>
		<text transform="matrix(1 0 0 1 295.1548 87.7296)" class="st3 st5">1</text>
	</g>
</g>
</svg>
